<?xml version="1.0" encoding="UTF-8" standalone="no"?>
<svg
   xmlns:dc="http://purl.org/dc/elements/1.1/"
   xmlns:cc="http://creativecommons.org/ns#"
   xmlns:rdf="http://www.w3.org/1999/02/22-rdf-syntax-ns#"
   xmlns:svg="http://www.w3.org/2000/svg"
   xmlns="http://www.w3.org/2000/svg"
   id="svg22"
   version="1.1"
   viewBox="0 0 165 60">
  <metadata
     id="metadata28">
    <rdf:RDF>
      <cc:Work
         rdf:about="">
        <dc:format>image/svg+xml</dc:format>
        <dc:type
           rdf:resource="http://purl.org/dc/dcmitype/StillImage" />
      </cc:Work>
    </rdf:RDF>
  </metadata>
  <defs
     id="defs26" />
  <g
     id="g20"
     fill="#323f4d">
    <path
       id="path2"
       d="M23.02 21.12v7.44h8.6v-7.44h2.33V38.9h-2.33v-8.34h-8.6v8.34h-2.29V21.12H23.02z" />
    <path
       id="path4"
       d="M48.79 32.4c0 4.73-3.27 6.78-6.36 6.78c-3.46 0-6.12-2.53-6.12-6.57 c0-4.27 2.8-6.78 6.33-6.78C46.31 25.8 48.8 28.5 48.8 32.4z M38.66 32.53c0 2.8 1.6 4.9 3.9 4.9 c2.21 0 3.88-2.09 3.88-4.96c0-2.17-1.08-4.91-3.82-4.91C39.85 27.6 38.7 30.1 38.7 32.53z" />
    <path
       id="path6"
       d="M51.1 29.58c0-1.32-0.02-2.4-0.1-3.46h2.03l0.1 2.06h0.08c0.72-1.21 1.9-2.35 4.02-2.35 c1.74 0 3.1 1.1 3.6 2.56h0.06c0.4-0.71 0.9-1.27 1.43-1.67c0.77-0.57 1.61-0.89 2.82-0.89c1.69 0 4.2 1.1 4.2 5.55v7.52 h-2.28v-7.23c0-2.45-0.9-3.93-2.77-3.93c-1.32 0-2.35 0.97-2.74 2.11c-0.1 0.32-0.18 0.74-0.18 1.16v7.88H59.1v-7.65 c0-2.03-0.89-3.51-2.67-3.51c-1.45 0-2.5 1.16-2.88 2.32c-0.14 0.34-0.18 0.74-0.18 1.13v7.71H51.1V29.58L51.1 29.58z" />
    <path
       id="path8"
       d="M73.84 32.81c0.06 3.2 2.1 4.5 4.5 4.53c1.7 0 2.72-0.29 3.61-0.68l0.4 1.7 c-0.84 0.38-2.26 0.83-4.33 0.83c-4.01 0-6.41-2.66-6.41-6.6c0-3.94 2.32-7.03 6.11-7.03c4.26 0 5.4 3.7 5.4 6.1 c0 0.49-0.06 0.86-0.08 1.1h-9.15V32.81z M80.78 31.12c0.03-1.51-0.61-3.85-3.28-3.85c-2.4 0-3.44 2.21-3.63 3.85H80.78z" />
    <path
       id="path10"
       d="M88.4 33.19l-1.89 5.71h-2.42l6.17-18.14h2.83l6.19 18.14h-2.5l-1.94-5.71H88.4z M94.35 31.4 l-1.78-5.22c-0.41-1.19-0.67-2.26-0.94-3.31h-0.06c-0.27 1.08-0.57 2.18-0.92 3.28l-1.78 5.25H94.35L94.35 31.36z" />
    <path
       id="path12"
       d="M101.61 25.87l1.72 6.62c0.37 1.5 0.7 2.8 1 4.15h0.08c0.29-1.32 0.72-2.72 1.15-4.15 l2.13-6.62h1.99l2.02 6.52c0.49 1.6 0.9 2.9 1.2 4.25h0.08c0.22-1.32 0.57-2.69 1-4.23l1.86-6.54h2.34l-4.19 13.03h-2.16 l-1.99-6.21c-0.45-1.45-0.84-2.75-1.16-4.28h-0.05c-0.33 1.56-0.73 2.91-1.19 4.31l-2.1 6.18h-2.15l-3.93-13.03H101.61 L101.61 25.87z" />
    <path
       id="path14"
       d="M128.89 35.78c0 1.1 0.1 2.2 0.2 3.12h-2.15l-0.19-1.64h-0.08 c-0.73 1.02-2.13 1.94-3.98 1.94c-2.65 0-3.98-1.86-3.98-3.74c0-3.15 2.8-4.87 7.83-4.84v-0.27c0-1.08-0.29-3.01-2.96-3.01 c-1.21 0-2.48 0.37-3.39 0.97l-0.53-1.56c1.08-0.7 2.64-1.16 4.28-1.16c3.98 0 5 2.7 5 5.33L128.89 35.78L128.89 35.78z M126.6 32.25c-2.58-0.06-5.51 0.41-5.51 2.93c0 1.5 1 2.3 2.2 2.26c1.7 0 2.77-1.07 3.15-2.18 c0.08-0.25 0.14-0.51 0.14-0.76V32.25L126.6 32.25z" />
    <path
       id="path16"
       d="M132.73 25.87l2.85 7.7c0.29 0.9 0.6 1.9 0.8 2.66h0.06c0.24-0.78 0.51-1.78 0.84-2.72 l2.58-7.65h2.5l-3.55 9.28c-1.49 3.91-2.68 6.25-4.47 7.8c-1.15 1.02-2.31 1.43-2.91 1.54l-0.59-1.99 c0.59-0.19 1.37-0.57 2.07-1.15c0.65-0.51 1.45-1.43 1.99-2.64c0.1-0.25 0.19-0.43 0.19-0.57c0-0.14-0.06-0.32-0.17-0.61 l-4.81-11.65H132.73L132.73 25.87L132.73 25.87z" />
    <path
       id="path18"
       d="M147.91 27.27c0 0.96-0.77 1.72-1.75 1.72c-0.98 0-1.76-0.77-1.76-1.72c0-0.96 0.78-1.71 1.77-1.71 C147.14 25.6 147.9 26.3 147.9 27.27z M144.84 27.27c0 0.8 0.6 1.4 1.3 1.36c0.74 0 1.3-0.6 1.3-1.35 c0-0.76-0.57-1.37-1.32-1.37C145.42 25.9 144.8 26.5 144.8 27.27z M145.9 28.16h-0.4v-1.7c0.16-0.02 0.37-0.06 0.65-0.06 c0.33 0 0.5 0.1 0.6 0.14c0.1 0.1 0.2 0.2 0.2 0.37c0 0.21-0.16 0.34-0.35 0.41v0.02c0.17 0.1 0.2 0.2 0.3 0.4 c0.06 0.3 0.1 0.3 0.1 0.41h-0.41c-0.06-0.06-0.08-0.21-0.14-0.41c-0.03-0.18-0.14-0.26-0.36-0.26h-0.19L145.9 28.2 L145.9 28.16z M145.9 27.2h0.19c0.21 0 0.39-0.07 0.39-0.25c0-0.16-0.11-0.26-0.37-0.26c-0.1 0-0.17 0.01-0.21 0.02V27.2 L145.9 27.2z" />
  </g>
</svg>
