<?xml version="1.0" encoding="UTF-8"?>
<svg xmlns="http://www.w3.org/2000/svg" xmlns:xlink="http://www.w3.org/1999/xlink" width="209pt" height="76pt" viewBox="0 0 209 76" version="1.1">
<g id="surface1">
<path style=" stroke:none;fill-rule:nonzero;fill:rgb(19.607843%,24.705882%,30.196078%);fill-opacity:1;" d="M 73.25 48.996094 L 66.105469 27.121094 L 69.160156 27.121094 L 72.566406 37.898438 C 73.515625 40.8125 74.339844 43.472656 74.847656 46.082031 L 74.910156 46.082031 C 75.519531 43.546875 76.429688 40.785156 77.40625 37.9375 L 81.105469 27.121094 L 84.132812 27.121094 L 76.316406 48.996094 Z M 73.25 48.996094 "/>
<path style=" stroke:none;fill-rule:nonzero;fill:rgb(19.607843%,24.705882%,30.196078%);fill-opacity:1;" d="M 86.5625 27.398438 C 87.984375 27.105469 90.035156 26.941406 91.984375 26.941406 C 95 26.941406 96.925781 27.449219 98.320312 28.726562 C 99.421875 29.742188 100.09375 31.132812 100.09375 32.90625 C 100.09375 35.796875 98.269531 37.722656 95.976562 38.492188 L 95.976562 38.59375 C 97.660156 39.230469 98.636719 40.75 99.140625 43.015625 C 99.851562 46.054688 100.410156 48.210938 100.789062 49.019531 L 97.863281 49.019531 C 97.507812 48.375 97.015625 46.523438 96.40625 43.800781 C 95.761719 40.773438 94.59375 39.648438 92.023438 39.546875 L 89.363281 39.546875 L 89.363281 49.019531 L 86.539062 49.019531 L 86.539062 27.398438 Z M 89.386719 37.367188 L 92.277344 37.367188 C 95.304688 37.367188 97.214844 35.707031 97.214844 33.210938 C 97.214844 30.386719 95.164062 29.160156 92.1875 29.121094 C 90.820312 29.121094 89.855469 29.246094 89.402344 29.386719 L 89.402344 37.367188 Z M 89.386719 37.367188 "/>
<path style=" stroke:none;fill-rule:nonzero;fill:rgb(19.607843%,24.705882%,30.196078%);fill-opacity:1;" d="M 104.03125 27.398438 C 105.273438 27.132812 107.210938 26.941406 109.1875 26.941406 C 112.011719 26.941406 113.875 27.449219 115.140625 28.523438 C 116.28125 29.410156 116.914062 30.679688 116.914062 32.324219 C 116.914062 34.441406 115.519531 36.289062 113.214844 37.136719 L 113.214844 37.203125 C 115.292969 37.707031 117.773438 39.480469 117.773438 42.6875 C 117.773438 44.574219 117.027344 45.992188 115.925781 47.070312 C 114.40625 48.460938 111.933594 49.121094 108.363281 49.097656 C 106.414062 49.097656 104.917969 48.957031 103.980469 48.828125 Z M 106.855469 36.367188 L 109.425781 36.367188 C 112.417969 36.367188 114.175781 34.808594 114.175781 32.691406 C 114.175781 30.132812 112.226562 29.121094 109.363281 29.121094 C 108.070312 29.121094 107.3125 29.222656 106.867188 29.3125 Z M 106.855469 46.855469 C 107.402344 46.980469 108.25 46.980469 109.261719 46.980469 C 112.1875 46.980469 114.886719 45.902344 114.886719 42.738281 C 114.886719 39.746094 112.328125 38.519531 109.238281 38.519531 L 106.90625 38.519531 Z M 106.855469 46.855469 "/>
<path style=" stroke:none;fill-rule:nonzero;fill:rgb(19.607843%,24.705882%,30.196078%);fill-opacity:1;" d="M 140.320312 37.824219 C 140.320312 45.359375 135.734375 49.347656 130.148438 49.347656 C 124.375 49.347656 120.308594 44.867188 120.308594 38.242188 C 120.308594 31.300781 124.628906 26.753906 130.464844 26.753906 C 136.457031 26.726562 140.347656 31.285156 140.347656 37.875 M 123.347656 38.175781 C 123.347656 42.863281 125.882812 47.042969 130.316406 47.042969 C 134.796875 47.042969 137.332031 42.925781 137.332031 37.949219 C 137.332031 33.605469 135.066406 29.058594 130.351562 29.058594 C 125.679688 29.007812 123.375 33.441406 123.375 38.125 "/>
<path style=" stroke:none;fill-rule:nonzero;fill:rgb(19.607843%,24.705882%,30.196078%);fill-opacity:1;" d="M 143.019531 26.09375 C 144.414062 26.09375 145.425781 27.105469 145.425781 28.523438 C 145.425781 29.90625 144.335938 30.96875 142.941406 30.96875 C 141.550781 30.96875 140.449219 29.90625 140.449219 28.523438 C 140.511719 27.105469 141.613281 26.09375 143.007812 26.09375 Z M 142.992188 26.574219 C 141.929688 26.574219 141.132812 27.449219 141.132812 28.511719 C 141.132812 29.527344 141.890625 30.414062 143.03125 30.414062 C 144.097656 30.414062 144.882812 29.550781 144.882812 28.476562 C 144.867188 27.488281 144.148438 26.601562 143.007812 26.574219 Z M 142.613281 29.765625 L 142.058594 29.765625 L 142.058594 27.359375 C 142.285156 27.308594 142.589844 27.269531 142.980469 27.269531 C 143.4375 27.269531 143.613281 27.398438 143.867188 27.460938 C 144.007812 27.589844 144.121094 27.714844 144.121094 27.980469 C 144.121094 28.257812 143.917969 28.460938 143.613281 28.5625 L 143.613281 28.589844 C 143.855469 28.714844 143.996094 28.84375 143.996094 29.183594 C 144.070312 29.5625 144.121094 29.691406 144.121094 29.78125 L 143.511719 29.78125 C 143.4375 29.691406 143.398438 29.488281 143.324219 29.195312 C 143.285156 28.929688 143.132812 28.804688 142.816406 28.804688 L 142.550781 28.804688 L 142.550781 29.765625 Z M 142.625 28.410156 L 142.894531 28.410156 C 143.195312 28.410156 143.460938 28.308594 143.460938 28.058594 C 143.460938 27.839844 143.296875 27.6875 142.941406 27.6875 C 142.792969 27.6875 142.691406 27.703125 142.625 27.714844 Z M 142.625 28.410156 "/>
</g>
</svg>
